<svg viewBox="0 0 24 24" xmlns="http://www.w3.org/2000/svg"><path d="m.9 17.3c-.3 0-.5-.2-.5-.5v-14.5c0-.3.2-.5.5-.5h5c.1 0 .3.1.4.1l1.9 1.9h10.8c.3 0 .5.2.5.5v.5c0 .3-.2.5-.5.5s-.5-.2-.5-.5h-10.6c-.1 0-.3-.1-.4-.1l-1.8-1.9h-4.3v14c0 .3-.2.5-.5.5z"/><path d="m2.9 19.3c-.3 0-.5-.2-.5-.5v-12.5c0-.3.2-.5.5-.5h18c.3 0 .5.2.5.5v.5c0 .3-.2.5-.5.5s-.5-.2-.5-.5h-17v12c0 .3-.2.5-.5.5z"/><path d="m22.9 20.8h-18c-.3 0-.5-.2-.5-.5v-12c0-.3.2-.5.5-.5h18c.3 0 .5.2.5.5v12c0 .3-.2.5-.5.5zm-17.5-1h17v-11h-17z"/><circle cx="8.9" cy="17.2" r=".6"/><path d="m8.9 18.3c-.6 0-1.1-.5-1.1-1.1s.5-1.1 1.1-1.1 1.1.5 1.1 1.1-.5 1.1-1.1 1.1zm0-1.2s-.1.1 0 0c-.1.2.1.2 0 0 .1.1.1 0 0 0z"/><circle cx="12.5" cy="14.2" r=".6"/><path d="m12.5 15.3c-.6 0-1.1-.5-1.1-1.1s.5-1.1 1.1-1.1 1.1.5 1.1 1.1-.5 1.1-1.1 1.1zm0-1.2c-.1 0-.1.1 0 0-.1.2.1.2 0 0 .1.1 0 0 0 0z"/><circle cx="16.1" cy="15.4" r=".6"/><path d="m16.1 16.5c-.6 0-1.1-.5-1.1-1.1s.5-1.1 1.1-1.1 1.1.5 1.1 1.1-.5 1.1-1.1 1.1zm0-1.2c-.1 0-.1.1 0 0-.1.2.1.2 0 0 .1.1 0 0 0 0z"/><circle cx="19.7" cy="11.2" r=".6"/><path d="m19.7 12.3c-.6 0-1.1-.5-1.1-1.1s.5-1.1 1.1-1.1 1.1.5 1.1 1.1-.5 1.1-1.1 1.1zm0-1.2c-.1 0-.1.1 0 0-.1.2 0 .2 0 0z"/><path d="m9.4 17.3c-.1 0-.3-.1-.4-.2-.2-.2-.1-.5.1-.7l2.7-2.2c.2-.2.5-.1.7.1s.1.5-.1.7l-2.7 2.2c-.1.1-.2.1-.3.1z"/><path d="m15.5 15.7c-.1 0-.1 0-.2 0l-2.5-.8c-.3-.1-.4-.4-.3-.6.1-.3.4-.4.6-.3l2.5.8c.3.1.4.4.3.6 0 .2-.2.3-.4.3z"/><path d="m16.5 15.5c-.1 0-.2 0-.3-.1-.2-.2-.2-.5-.1-.7l2.8-3.3c.2-.2.5-.2.7-.1.2.2.2.5.1.7l-2.8 3.3c-.2.1-.3.2-.4.2z"/></svg>